<svg width="20" height="24" viewBox="0 0 20 24" fill="none" xmlns="http://www.w3.org/2000/svg">
<path d="M5.07799 23.55C4.60499 23.234 4.18499 22.847 3.83399 22.4C3.45099 21.937 3.09599 21.45 2.76999 20.946C2.00399 19.826 1.40499 18.601 0.989994 17.31C0.489994 15.808 0.246994 14.37 0.246994 12.963C0.246994 11.393 0.586994 10.023 1.24899 8.87302C1.73899 7.97302 2.46899 7.22002 3.34899 6.69102C4.19899 6.16102 5.18899 5.87102 6.18899 5.85102C6.53899 5.85102 6.91899 5.90102 7.31899 6.00102C7.60899 6.08102 7.95899 6.21102 8.38899 6.37102C8.93899 6.58102 9.23899 6.71102 9.33899 6.74102C9.65899 6.86102 9.92899 6.91102 10.139 6.91102C10.299 6.91102 10.529 6.86102 10.784 6.78102C10.929 6.73102 11.204 6.64102 11.594 6.47102C11.98 6.33102 12.286 6.21102 12.529 6.12102C12.899 6.01102 13.257 5.91102 13.579 5.86102C13.969 5.80102 14.356 5.78102 14.727 5.81102C15.437 5.86102 16.087 6.01102 16.667 6.23102C17.687 6.64102 18.51 7.28102 19.124 8.19102C18.864 8.35102 18.624 8.53702 18.399 8.74102C17.912 9.17102 17.499 9.68102 17.169 10.246C16.739 11.016 16.519 11.886 16.525 12.766C16.54 13.849 16.815 14.801 17.365 15.626C17.752 16.226 18.269 16.74 18.899 17.162C19.209 17.372 19.481 17.517 19.739 17.612C19.619 17.987 19.487 18.352 19.334 18.712C18.987 19.519 18.574 20.292 18.084 21.022C17.652 21.652 17.312 22.122 17.054 22.432C16.652 22.912 16.264 23.272 15.874 23.529C15.444 23.814 14.939 23.965 14.422 23.965C14.072 23.98 13.722 23.935 13.388 23.838C13.098 23.743 12.812 23.636 12.532 23.515C12.239 23.381 11.936 23.267 11.627 23.175C11.247 23.075 10.857 23.027 10.463 23.028C10.063 23.028 9.67299 23.078 9.30299 23.173C8.99299 23.261 8.69299 23.369 8.39599 23.498C7.97599 23.673 7.70099 23.788 7.54099 23.838C7.21699 23.934 6.88499 23.992 6.55099 24.013C6.03099 24.013 5.54699 23.863 5.06499 23.563L5.07799 23.55ZM11.932 5.09002C11.252 5.43002 10.606 5.57402 9.95899 5.52602C9.85899 4.88002 9.95899 4.21602 10.229 3.48902C10.469 2.86902 10.789 2.30902 11.229 1.80902C11.689 1.28902 12.239 0.859023 12.859 0.549023C13.519 0.209023 14.149 0.0290234 14.749 -0.000976562C14.829 0.679023 14.749 1.34902 14.499 2.06902C14.271 2.70902 13.931 3.29902 13.499 3.82902C13.064 4.34902 12.524 4.77902 11.913 5.08902L11.932 5.09002Z" fill="white"/>
</svg>
